<svg width="167" height="39" viewBox="0 0 167 39" fill="none" xmlns="http://www.w3.org/2000/svg">
<g clip-path="url(#clip0_1555_7322)">
<path d="M69.1829 9.95536C69.1829 11.2728 68.3071 12.1149 66.8819 12.1149H61.637V28.9103C61.637 30.4602 60.7456 31.385 59.3359 31.385C57.9263 31.385 57.0193 30.4602 57.0193 28.9103V12.12H51.7745C50.3493 12.12 49.4734 11.2779 49.4734 9.96053C49.4734 8.64313 50.3493 7.83203 51.7745 7.83203H66.8819C68.3071 7.83203 69.1829 8.67413 69.1829 9.96053" fill="#333333"/>
<path d="M67.7786 25.7743C67.7786 23.0517 69.9294 20.4634 74.4953 20.4634C75.8376 20.4634 77.0762 20.6442 78.403 20.9903V19.7194C78.403 18.1024 77.5115 17.2138 74.9772 17.2138C73.9822 17.2138 72.9923 17.4308 72.2978 17.6943C71.7018 17.8906 71.1887 18.0921 70.6912 18.0921C69.6495 18.0921 68.8358 17.3171 68.8203 16.227C68.8203 15.3178 69.2815 14.579 70.458 14.1347C71.6655 13.6543 73.3188 13.21 75.2882 13.21C80.0718 13.21 82.7201 15.3075 82.7201 19.9054V28.1507C82.7201 28.9257 82.5024 29.339 81.9272 29.7161C80.8336 30.4394 78.2216 31.5295 74.7959 31.5295C70.1781 31.5295 67.7786 28.9205 67.7786 25.7743ZM75.1068 27.9493C76.2988 27.9493 77.5219 27.6548 78.3978 27.2053V23.9868C77.2369 23.6406 76.2159 23.4753 75.0861 23.4753C73.0856 23.4753 72.0387 24.4827 72.0387 25.7691C72.0387 27.1537 73.2981 27.9441 75.1016 27.9441" fill="#333333"/>
<path d="M102.549 24.8186C102.202 28.776 99.3044 31.5348 94.8059 31.5348C91.4631 31.5348 88.8303 30.4602 87.7575 29.7369C87.1926 29.3391 86.9646 28.931 86.9646 28.1199V9.74354C86.9646 8.24016 87.856 7.35156 89.2139 7.35156C90.5717 7.35156 91.4631 8.24016 91.4631 9.74354V13.9799C92.4375 13.5356 93.9301 13.2049 95.3035 13.2049C99.3096 13.2049 102.202 15.9585 102.554 19.921C102.668 21.2384 102.668 23.4858 102.554 24.8186M94.609 27.2106C96.7909 27.2106 97.9362 25.8932 98.0813 24.0127C98.1643 23.0208 98.1798 21.8842 98.0813 20.7476C97.9311 18.8516 96.7909 17.5291 94.609 17.5291C93.4999 17.5291 92.1576 17.8442 91.4631 18.3402V26.4047C92.1576 26.9006 93.4999 27.2106 94.609 27.2106Z" fill="#333333"/>
<path d="M111.333 9.11809C111.333 10.6008 110.24 11.7064 108.784 11.7064C107.327 11.7064 106.27 10.6008 106.27 9.11809C106.27 7.63538 107.364 6.5918 108.784 6.5918C110.204 6.5918 111.333 7.69737 111.333 9.11809ZM106.55 15.7464C106.55 14.2637 107.441 13.3699 108.815 13.3699C110.188 13.3699 111.064 14.2585 111.064 15.7464V28.9926C111.064 30.496 110.173 31.3846 108.815 31.3846C107.457 31.3846 106.55 30.496 106.55 28.9926V15.7464Z" fill="#333333"/>
<path d="M131.141 24.8186C130.794 28.776 127.897 31.5348 123.398 31.5348C120.056 31.5348 117.423 30.4602 116.35 29.7369C115.785 29.3391 115.557 28.931 115.557 28.1199V9.74354C115.557 8.24016 116.449 7.35156 117.806 7.35156C119.164 7.35156 120.056 8.24016 120.056 9.74354V13.9799C121.03 13.5356 122.523 13.2049 123.896 13.2049C127.902 13.2049 130.794 15.9585 131.146 19.921C131.261 21.2384 131.261 23.4858 131.146 24.8186M123.202 27.2106C125.383 27.2106 126.529 25.8932 126.674 24.0127C126.757 23.0208 126.772 21.8842 126.674 20.7476C126.524 18.8516 125.383 17.5291 123.202 17.5291C122.092 17.5291 120.75 17.8442 120.056 18.3402V26.4047C120.75 26.9006 122.092 27.2106 123.202 27.2106Z" fill="#66DBBF"/>
<path d="M3.71584 14.6881L7.58726 4.08691C4.19782 6.7062 1.68943 10.4156 0.601074 14.6881H3.71584Z" fill="white"/>
<path d="M19.5593 0C18.0978 0 16.6777 0.16532 15.3043 0.470128L19.6681 26.2135L21.5909 22.5352C21.9174 21.9101 22.5652 21.5226 23.27 21.5226H28.6289C29.1679 20.7528 30.0593 20.2517 31.0751 20.2517C32.7231 20.2517 34.0603 21.5846 34.0603 23.2274C34.0603 24.8703 32.7231 26.2032 31.0751 26.2032C30.2355 26.2032 29.4736 25.8519 28.9295 25.2939H24.4154L20.4196 32.9348C20.0879 33.5651 19.4401 33.9474 18.7456 33.9474C18.6471 33.9474 18.5486 33.9422 18.4502 33.9267C17.6469 33.7976 17.0146 33.1776 16.8798 32.3769L11.9356 3.19274L6.82035 17.2139C6.55085 17.9579 5.84083 18.4538 5.0427 18.4538H0.0310958C0.0155479 18.8 0 19.1461 0 19.4974C0 30.2639 8.75865 38.9948 19.5593 38.9948C30.3599 38.9948 39.1185 30.2639 39.1185 19.4974C39.1185 8.73096 30.365 0 19.5593 0Z" fill="white"/>
<path d="M3.71608 14.6881L7.58751 4.08691C4.19807 6.7062 1.68967 10.4156 0.601318 14.6881H3.71608Z" fill="#66DBBF"/>
<path d="M19.5593 0C18.0978 0 16.6777 0.16532 15.3043 0.470128L19.6681 26.2135L21.5909 22.5352C21.9174 21.9101 22.5652 21.5226 23.27 21.5226H28.6289C29.1679 20.7528 30.0593 20.2517 31.0751 20.2517C32.7231 20.2517 34.0603 21.5846 34.0603 23.2274C34.0603 24.8703 32.7231 26.2032 31.0751 26.2032C30.2355 26.2032 29.4736 25.8519 28.9295 25.2939H24.4154L20.4196 32.9348C20.0879 33.5651 19.4401 33.9474 18.7456 33.9474C18.6471 33.9474 18.5486 33.9422 18.4502 33.9267C17.6469 33.7976 17.0146 33.1776 16.8798 32.3769L11.9356 3.19274L6.82035 17.2139C6.55085 17.9579 5.84083 18.4538 5.0427 18.4538H0.0310958C0.0155479 18.8 0 19.1461 0 19.4974C0 30.2639 8.75865 38.9948 19.5593 38.9948C30.3599 38.9948 39.1185 30.2639 39.1185 19.4974C39.1185 8.73096 30.365 0 19.5593 0Z" fill="#66DBBF"/>
<path d="M135.759 29.9485V8.90119C135.759 7.99193 136.272 7.48047 137.101 7.48047C137.931 7.48047 138.444 7.99193 138.444 8.90119V29.9485C138.444 30.8577 137.931 31.3692 137.101 31.3692C136.272 31.3692 135.759 30.8577 135.759 29.9485Z" fill="#66DBBF"/>
<path d="M147.208 9.3303C147.208 10.3377 146.461 11.0972 145.451 11.0972C144.44 11.0972 143.73 10.3377 143.73 9.3303C143.73 8.32288 144.476 7.59961 145.451 7.59961C146.425 7.59961 147.208 8.34355 147.208 9.3303ZM144.129 15.2198C144.129 14.3106 144.642 13.7991 145.471 13.7991C146.301 13.7991 146.814 14.3106 146.814 15.2198V29.9488C146.814 30.8581 146.316 31.3695 145.471 31.3695C144.627 31.3695 144.129 30.8581 144.129 29.9488V15.2198Z" fill="#66DBBF"/>
<path d="M166.902 24.9682C166.554 28.8429 163.807 31.519 159.521 31.519C156.692 31.519 154.043 30.4444 152.95 29.7367C152.551 29.4732 152.39 29.1787 152.39 28.5639V8.90119C152.39 7.99193 152.903 7.48047 153.732 7.48047C154.562 7.48047 155.075 7.99193 155.075 8.90119V14.6719C156.23 14.0933 157.956 13.649 159.677 13.649C163.813 13.649 166.544 16.3199 166.907 20.2153C167.036 21.5327 167.036 23.6302 166.907 24.9682M159.475 28.9101C162.356 28.9101 164.01 27.2104 164.238 24.6531C164.372 23.4183 164.372 21.8013 164.238 20.5149C164.004 17.9576 162.351 16.2734 159.475 16.2734C157.967 16.2734 156.018 16.7539 155.075 17.41V27.7528C156.018 28.4296 157.972 28.9049 159.475 28.9049" fill="#66DBBF"/>
</g>
<defs>
<clipPath id="clip0_1555_7322">
<rect width="167" height="39" fill="white"/>
</clipPath>
</defs>
</svg>
